<svg xmlns="http://www.w3.org/2000/svg" version="1.1" xmlns:xlink="http://www.w3.org/1999/xlink" xmlns:svgjs="http://svgjs.com/svgjs" width="1440" height="560" preserveAspectRatio="none" viewBox="0 0 1440 560"><g mask="url(&quot;#SvgjsMask1001&quot;)" fill="none"><rect width="1440" height="560" x="0" y="0" fill="#0e2a47"></rect><path d="M 0,48 C 57.6,71.2 172.8,156.2 288,164 C 403.2,171.8 460.8,89.8 576,87 C 691.2,84.2 748.8,156 864,150 C 979.2,144 1036.8,39 1152,57 C 1267.2,75 1382.4,203.4 1440,240L1440 560L0 560z" fill="#184a7e"></path><path d="M 0,316 C 96,364.2 288,556.8 480,557 C 672,557.2 768,334.8 960,317 C 1152,299.2 1344,437.8 1440,468L1440 560L0 560z" fill="#2264ab"></path></g><defs><mask id="SvgjsMask1001"><rect width="1440" height="560" fill="#ffffff"></rect></mask></defs></svg>